<?xml version="1.0" standalone="no"?>
<!DOCTYPE svg PUBLIC "-//W3C//DTD SVG 20010904//EN"
 "http://www.w3.org/TR/2001/REC-SVG-20010904/DTD/svg10.dtd">
<svg version="1.0" xmlns="http://www.w3.org/2000/svg"
 width="350.000000pt" height="117.000000pt" viewBox="0 0 350.000000 117.000000"
 preserveAspectRatio="xMidYMid meet">

<g transform="translate(0.000000,117.000000) scale(0.100000,-0.100000)"
fill="#2f80ed" stroke="none">
<path d="M652 714 c-63 -32 -108 -108 -82 -139 23 -28 40 -18 40 24 0 31 7 46
32 72 18 17 34 27 35 22 2 -6 -10 -47 -27 -91 -16 -45 -43 -118 -60 -162 -27
-75 -28 -80 -11 -80 15 0 26 18 47 73 54 144 55 144 50 29 l-4 -103 35 3 c35
3 36 5 76 101 22 53 42 96 44 94 3 -4 -12 -127 -23 -175 -4 -21 -2 -23 33 -20
l37 3 23 160 c29 208 30 195 -10 195 -34 0 -34 -1 -82 -112 -26 -62 -49 -115
-52 -118 -3 -3 -4 49 -2 115 l4 120 -35 3 c-19 1 -50 -5 -68 -14z"/>
<path d="M2224 720 c-35 -14 -82 -77 -99 -132 -20 -67 -20 -167 0 -195 32 -46
127 -48 186 -4 l28 21 25 -25 c60 -60 152 -7 171 98 4 20 10 37 14 37 4 0 15
14 24 30 19 31 9 42 -13 15 -11 -14 -15 -12 -31 15 -16 26 -25 30 -60 30 -55
0 -101 -47 -119 -120 -13 -55 -34 -75 -87 -86 -66 -13 -90 56 -59 171 25 95
63 143 100 129 19 -7 21 -45 4 -62 -9 -9 -7 -13 5 -18 30 -11 47 3 47 40 0 25
-7 39 -22 50 -24 17 -80 20 -114 6z m271 -150 c4 -6 1 -18 -6 -26 -8 -10 -9
-18 -2 -25 22 -22 -17 -109 -47 -109 -17 0 -20 7 -20 43 1 76 51 155 75 117z"/>
<path d="M1423 702 c-18 -2 -33 -5 -33 -6 0 -2 -16 -74 -35 -162 -19 -87 -35
-162 -35 -166 0 -4 15 -8 34 -8 34 0 35 1 46 58 20 98 30 129 45 142 30 25 38
-2 24 -84 -14 -85 -8 -109 30 -114 13 -2 32 5 45 17 21 20 22 20 33 2 9 -15
25 -19 82 -19 78 -1 71 -8 91 88 15 74 29 107 46 114 23 9 26 -11 13 -90 -14
-82 -8 -107 29 -112 12 -2 30 2 41 8 24 12 28 40 6 40 -18 0 -19 22 -4 88 7
27 9 61 5 76 -8 31 -46 44 -82 27 -15 -6 -24 -7 -24 -1 0 6 -15 10 -34 10 -33
0 -35 -2 -46 -52 -6 -29 -16 -74 -21 -100 -7 -30 -16 -48 -25 -48 -18 0 -18
38 1 115 20 84 20 85 -20 85 -19 0 -35 -2 -35 -4 0 -5 -27 -139 -35 -173 -5
-22 -29 -31 -38 -15 -3 4 2 38 10 75 14 61 14 69 -1 92 -17 26 -45 32 -77 15
-22 -13 -23 -6 -8 59 5 24 8 44 7 45 -2 1 -18 0 -35 -2z"/>
<path d="M1622 698 c-32 -32 8 -80 48 -58 34 18 19 70 -20 70 -9 0 -21 -5 -28
-12z"/>
<path d="M2780 688 c0 -7 -5 -30 -11 -51 -8 -31 -14 -37 -30 -32 -58 19 -117
-31 -140 -116 -27 -99 34 -164 103 -110 24 19 24 19 36 0 15 -23 55 -25 76 -3
20 20 20 34 1 34 -21 0 -19 29 10 158 14 61 25 116 25 121 0 6 -16 11 -35 11
-21 0 -35 -5 -35 -12z m-34 -160 c-10 -73 -31 -118 -55 -118 -27 0 -34 29 -20
83 12 49 41 87 66 87 13 0 14 -8 9 -52z"/>
<path d="M985 588 c-59 -47 -86 -167 -45 -208 25 -25 60 -26 92 -1 24 19 24
19 36 0 16 -26 58 -25 73 2 l11 21 22 -21 c31 -29 80 -27 111 4 33 32 32 47
-1 30 -54 -28 -73 7 -50 88 23 78 66 111 66 50 0 -27 12 -30 30 -8 10 12 10
21 2 40 -10 21 -19 25 -53 25 -34 0 -47 -6 -74 -34 -30 -32 -55 -98 -55 -145
0 -12 -7 -21 -15 -21 -19 0 -19 -4 5 104 11 50 20 91 20 93 0 2 -16 3 -35 3
-21 0 -35 -5 -35 -12 0 -9 -3 -9 -12 0 -19 19 -63 14 -93 -10z m89 -17 c8 -12
-11 -108 -27 -139 -13 -27 -50 -26 -55 1 -13 67 56 181 82 138z"/>
<path d="M1955 576 c-30 -32 -55 -98 -55 -144 0 -11 9 -31 21 -46 27 -35 86
-36 117 -3 25 27 31 57 8 37 -23 -18 -61 -8 -64 17 -2 16 4 24 32 33 43 14 76
53 76 89 0 37 -17 51 -63 51 -32 0 -46 -7 -72 -34z m95 -15 c0 -24 -37 -71
-56 -71 -12 0 -12 5 1 37 19 45 35 64 46 57 5 -3 9 -13 9 -23z"/>
<path d="M2898 588 c-34 -29 -57 -76 -64 -132 -6 -39 -3 -48 19 -70 32 -32 74
-34 111 -5 36 28 33 38 -13 32 -34 -5 -39 -3 -44 18 -7 24 6 39 34 39 43 0 93
85 72 119 -16 26 -83 25 -115 -1z m82 -25 c0 -15 -10 -37 -22 -50 -25 -27 -53
-31 -44 -7 3 9 6 19 6 23 0 13 40 61 51 61 5 0 9 -12 9 -27z"/>
</g>
</svg>
